<svg xmlns="http://www.w3.org/2000/svg" viewBox="0 0 64 64">
  <defs>
    <linearGradient id="g" x1="0" y1="0" x2="1" y2="1">
      <stop offset="0" stop-color="#8b5cf6"/>
      <stop offset="1" stop-color="#22c55e"/>
    </linearGradient>
  </defs>
  <rect x="4" y="4" width="56" height="56" rx="14" fill="#0b1220"/>
  <path
    d="M40 14c0-1.1.9-2 2-2h2c1.1 0 2 .9 2 2v28.3c0 6.5-5.3 11.7-11.7 11.7-4.9 0-8.9-3.4-8.9-7.8 0-4.7 4.6-8.6 10.4-8.6 1.6 0 3.2.3 4.2.8V22.4l-16 4.4V45c0 6.5-5.3 11.7-11.7 11.7C7.9 56.7 4 53.3 4 48.9c0-4.7 4.6-8.6 10.4-8.6 1.6 0 3.2.3 4.2.8V20.7c0-.9.6-1.7 1.5-1.9l20-5.5c.3-.1.4-.1.5-.1Z"
    fill="url(#g)"
  />
</svg>
